<mxfile host="app.diagrams.net" agent="Mozilla/5.0 (Macintosh; Intel Mac OS X 10_15_7) AppleWebKit/537.36 (KHTML, like Gecko) Chrome/128.0.0.0 Safari/537.36" version="24.7.16">
  <diagram name="第 1 页" id="i1vxnPYmpTzfvc4W9nX8">
    <mxGraphModel dx="954" dy="605" grid="1" gridSize="10" guides="1" tooltips="1" connect="1" arrows="1" fold="1" page="1" pageScale="1" pageWidth="827" pageHeight="1169" math="0" shadow="0">
      <root>
        <mxCell id="0" />
        <mxCell id="1" parent="0" />
        <mxCell id="-KX6IIEUBqY4CV59_w8o-1" value="" style="endArrow=classic;html=1;rounded=0;" edge="1" parent="1">
          <mxGeometry width="50" height="50" relative="1" as="geometry">
            <mxPoint x="60" y="310" as="sourcePoint" />
            <mxPoint x="750" y="310" as="targetPoint" />
          </mxGeometry>
        </mxCell>
        <mxCell id="-KX6IIEUBqY4CV59_w8o-2" value="JS" style="rounded=0;whiteSpace=wrap;html=1;fillColor=#dae8fc;strokeColor=#6c8ebf;" vertex="1" parent="1">
          <mxGeometry x="140" y="270" width="80" height="40" as="geometry" />
        </mxCell>
        <mxCell id="-KX6IIEUBqY4CV59_w8o-4" value="标记" style="rounded=0;whiteSpace=wrap;html=1;fillColor=#d5e8d4;strokeColor=#82b366;" vertex="1" parent="1">
          <mxGeometry x="220" y="270" width="80" height="40" as="geometry" />
        </mxCell>
        <mxCell id="-KX6IIEUBqY4CV59_w8o-5" value="清除" style="rounded=0;whiteSpace=wrap;html=1;fillColor=#d5e8d4;strokeColor=#82b366;" vertex="1" parent="1">
          <mxGeometry x="300" y="270" width="80" height="40" as="geometry" />
        </mxCell>
        <mxCell id="-KX6IIEUBqY4CV59_w8o-6" value="整理" style="rounded=0;whiteSpace=wrap;html=1;fillColor=#d5e8d4;strokeColor=#82b366;" vertex="1" parent="1">
          <mxGeometry x="380" y="270" width="80" height="40" as="geometry" />
        </mxCell>
        <mxCell id="-KX6IIEUBqY4CV59_w8o-7" value="JS" style="rounded=0;whiteSpace=wrap;html=1;fillColor=#dae8fc;strokeColor=#6c8ebf;" vertex="1" parent="1">
          <mxGeometry x="460" y="270" width="80" height="40" as="geometry" />
        </mxCell>
        <mxCell id="-KX6IIEUBqY4CV59_w8o-10" value="" style="rounded=0;whiteSpace=wrap;html=1;fillColor=none;dashed=1;" vertex="1" parent="1">
          <mxGeometry x="200" y="250" width="280" height="120" as="geometry" />
        </mxCell>
        <mxCell id="-KX6IIEUBqY4CV59_w8o-11" value="垃圾回收操作" style="text;html=1;align=center;verticalAlign=middle;whiteSpace=wrap;rounded=0;" vertex="1" parent="1">
          <mxGeometry x="310" y="330" width="80" height="30" as="geometry" />
        </mxCell>
      </root>
    </mxGraphModel>
  </diagram>
</mxfile>
